<?xml version="1.0" encoding="UTF-8" standalone="no"?>
<!DOCTYPE svg PUBLIC "-//W3C//DTD SVG 1.1//EN"
 "http://www.w3.org/Graphics/SVG/1.1/DTD/svg11.dtd">
<!-- Generated by graphviz version 2.40.1 (20161225.0304)
 -->
<!-- Title: dependency&#45;cruiser output Pages: 1 -->
<svg width="663pt" height="330pt"
 viewBox="0.00 0.00 663.00 330.15" xmlns="http://www.w3.org/2000/svg" xmlns:xlink="http://www.w3.org/1999/xlink">
<g id="graph0" class="graph" transform="scale(1 1) rotate(0) translate(4 326.1479)">
<title>dependency&#45;cruiser output</title>
<polygon fill="#ffffff" stroke="transparent" points="-4,4 -4,-326.1479 659,-326.1479 659,4 -4,4"/>
<g id="clust1" class="cluster">
<title>cluster_src</title>
<path fill="#ffffff" stroke="#000000" stroke-width="2" d="M20,-8.1479C20,-8.1479 635,-8.1479 635,-8.1479 641,-8.1479 647,-14.1479 647,-20.1479 647,-20.1479 647,-302.1479 647,-302.1479 647,-308.1479 641,-314.1479 635,-314.1479 635,-314.1479 20,-314.1479 20,-314.1479 14,-314.1479 8,-308.1479 8,-302.1479 8,-302.1479 8,-20.1479 8,-20.1479 8,-14.1479 14,-8.1479 20,-8.1479"/>
<text text-anchor="middle" x="327.5" y="-302.9479" font-family="Helvetica,sans-Serif" font-weight="bold" font-size="9.00" fill="#000000">src</text>
</g>
<g id="clust2" class="cluster">
<title>cluster_src/api</title>
<path fill="#ffffff" stroke="#000000" stroke-width="2" d="M509,-26.1479C509,-26.1479 565,-26.1479 565,-26.1479 571,-26.1479 577,-32.1479 577,-38.1479 577,-38.1479 577,-66.1479 577,-66.1479 577,-72.1479 571,-78.1479 565,-78.1479 565,-78.1479 509,-78.1479 509,-78.1479 503,-78.1479 497,-72.1479 497,-66.1479 497,-66.1479 497,-38.1479 497,-38.1479 497,-32.1479 503,-26.1479 509,-26.1479"/>
<text text-anchor="middle" x="537" y="-66.9479" font-family="Helvetica,sans-Serif" font-weight="bold" font-size="9.00" fill="#000000">api</text>
</g>
<g id="clust3" class="cluster">
<title>cluster_src/auth</title>
<path fill="#ffffff" stroke="#000000" stroke-width="2" d="M255,-46.1479C255,-46.1479 301,-46.1479 301,-46.1479 307,-46.1479 313,-52.1479 313,-58.1479 313,-58.1479 313,-86.1479 313,-86.1479 313,-92.1479 307,-98.1479 301,-98.1479 301,-98.1479 255,-98.1479 255,-98.1479 249,-98.1479 243,-92.1479 243,-86.1479 243,-86.1479 243,-58.1479 243,-58.1479 243,-52.1479 249,-46.1479 255,-46.1479"/>
<text text-anchor="middle" x="278" y="-86.9479" font-family="Helvetica,sans-Serif" font-weight="bold" font-size="9.00" fill="#000000">auth</text>
</g>
<g id="clust4" class="cluster">
<title>cluster_src/components</title>
<path fill="#ffffff" stroke="#000000" stroke-width="2" d="M365.5,-86.1479C365.5,-86.1479 561,-86.1479 561,-86.1479 567,-86.1479 573,-92.1479 573,-98.1479 573,-98.1479 573,-276.1479 573,-276.1479 573,-282.1479 567,-288.1479 561,-288.1479 561,-288.1479 365.5,-288.1479 365.5,-288.1479 359.5,-288.1479 353.5,-282.1479 353.5,-276.1479 353.5,-276.1479 353.5,-98.1479 353.5,-98.1479 353.5,-92.1479 359.5,-86.1479 365.5,-86.1479"/>
<text text-anchor="middle" x="463.25" y="-276.9479" font-family="Helvetica,sans-Serif" font-weight="bold" font-size="9.00" fill="#000000">components</text>
</g>
<g id="clust5" class="cluster">
<title>cluster_src/images</title>
<path fill="#ffffff" stroke="#000000" stroke-width="2" d="M333,-26.1479C333,-26.1479 477,-26.1479 477,-26.1479 483,-26.1479 489,-32.1479 489,-38.1479 489,-38.1479 489,-66.1479 489,-66.1479 489,-72.1479 483,-78.1479 477,-78.1479 477,-78.1479 333,-78.1479 333,-78.1479 327,-78.1479 321,-72.1479 321,-66.1479 321,-66.1479 321,-38.1479 321,-38.1479 321,-32.1479 327,-26.1479 333,-26.1479"/>
<text text-anchor="middle" x="405" y="-66.9479" font-family="Helvetica,sans-Serif" font-weight="bold" font-size="9.00" fill="#000000">images</text>
</g>
<g id="clust6" class="cluster">
<title>cluster_src/types</title>
<path fill="#ffffff" stroke="#000000" stroke-width="2" d="M28,-169.1479C28,-169.1479 131,-169.1479 131,-169.1479 137,-169.1479 143,-175.1479 143,-181.1479 143,-181.1479 143,-269.1479 143,-269.1479 143,-275.1479 137,-281.1479 131,-281.1479 131,-281.1479 28,-281.1479 28,-281.1479 22,-281.1479 16,-275.1479 16,-269.1479 16,-269.1479 16,-181.1479 16,-181.1479 16,-175.1479 22,-169.1479 28,-169.1479"/>
<text text-anchor="middle" x="79.5" y="-269.9479" font-family="Helvetica,sans-Serif" font-weight="bold" font-size="9.00" fill="#000000">types</text>
</g>
<!-- src/App.tsx -->
<g id="node1" class="node">
<title>src/App.tsx</title>
<g id="a_node1"><a xlink:href="src/App.tsx" xlink:title="App.tsx">
<path fill="#bbfeff" stroke="#000000" d="M299,-148.1479C299,-148.1479 257,-148.1479 257,-148.1479 254,-148.1479 251,-145.1479 251,-142.1479 251,-142.1479 251,-136.1479 251,-136.1479 251,-133.1479 254,-130.1479 257,-130.1479 257,-130.1479 299,-130.1479 299,-130.1479 302,-130.1479 305,-133.1479 305,-136.1479 305,-136.1479 305,-142.1479 305,-142.1479 305,-145.1479 302,-148.1479 299,-148.1479"/>
<text text-anchor="middle" x="278" y="-136.9479" font-family="Helvetica,sans-Serif" font-size="9.00" fill="#000000">App.tsx</text>
</a>
</g>
</g>
<!-- src/components/EditTodo.tsx -->
<g id="node5" class="node">
<title>src/components/EditTodo.tsx</title>
<g id="a_node5"><a xlink:href="src/components/EditTodo.tsx" xlink:title="EditTodo.tsx">
<path fill="#bbfeff" stroke="#000000" d="M432.5,-202.1479C432.5,-202.1479 377.5,-202.1479 377.5,-202.1479 374.5,-202.1479 371.5,-199.1479 371.5,-196.1479 371.5,-196.1479 371.5,-190.1479 371.5,-190.1479 371.5,-187.1479 374.5,-184.1479 377.5,-184.1479 377.5,-184.1479 432.5,-184.1479 432.5,-184.1479 435.5,-184.1479 438.5,-187.1479 438.5,-190.1479 438.5,-190.1479 438.5,-196.1479 438.5,-196.1479 438.5,-199.1479 435.5,-202.1479 432.5,-202.1479"/>
<text text-anchor="middle" x="405" y="-190.9479" font-family="Helvetica,sans-Serif" font-size="9.00" fill="#000000">EditTodo.tsx</text>
</a>
</g>
</g>
<!-- src/App.tsx&#45;&gt;src/components/EditTodo.tsx -->
<g id="edge1" class="edge">
<title>src/App.tsx&#45;&gt;src/components/EditTodo.tsx</title>
<path fill="none" stroke="#000000" stroke-width="2" stroke-opacity="0.200000" d="M285.2079,-148.1489C293.0192,-157.2429 306.3461,-170.9481 321,-178.1479 334.6117,-184.8356 350.7701,-188.5733 365.2616,-190.6509"/>
<polygon fill="#000000" fill-opacity="0.200000" stroke="#000000" stroke-width="2" stroke-opacity="0.200000" points="365.1372,-192.7523 371.3579,-191.4434 365.6787,-188.5873 365.1372,-192.7523"/>
</g>
<!-- src/components/LogIn.tsx -->
<g id="node7" class="node">
<title>src/components/LogIn.tsx</title>
<g id="a_node7"><a xlink:href="src/components/LogIn.tsx" xlink:title="LogIn.tsx">
<path fill="#bbfeff" stroke="#000000" d="M426,-172.1479C426,-172.1479 384,-172.1479 384,-172.1479 381,-172.1479 378,-169.1479 378,-166.1479 378,-166.1479 378,-160.1479 378,-160.1479 378,-157.1479 381,-154.1479 384,-154.1479 384,-154.1479 426,-154.1479 426,-154.1479 429,-154.1479 432,-157.1479 432,-160.1479 432,-160.1479 432,-166.1479 432,-166.1479 432,-169.1479 429,-172.1479 426,-172.1479"/>
<text text-anchor="middle" x="405" y="-160.9479" font-family="Helvetica,sans-Serif" font-size="9.00" fill="#000000">LogIn.tsx</text>
</a>
</g>
</g>
<!-- src/App.tsx&#45;&gt;src/components/LogIn.tsx -->
<g id="edge2" class="edge">
<title>src/App.tsx&#45;&gt;src/components/LogIn.tsx</title>
<path fill="none" stroke="#000000" stroke-width="2" stroke-opacity="0.200000" d="M305.2722,-144.9829C310.4878,-146.0629 315.9084,-147.1606 321,-148.1479 337.6906,-151.384 356.2982,-154.7333 371.7497,-157.4438"/>
<polygon fill="#000000" fill-opacity="0.200000" stroke="#000000" stroke-width="2" stroke-opacity="0.200000" points="371.4523,-159.5236 377.7242,-158.4877 372.1753,-155.3863 371.4523,-159.5236"/>
</g>
<!-- src/components/NotFound.tsx -->
<g id="node8" class="node">
<title>src/components/NotFound.tsx</title>
<g id="a_node8"><a xlink:href="src/components/NotFound.tsx" xlink:title="NotFound.tsx">
<path fill="#bbfeff" stroke="#000000" d="M434.5,-142.1479C434.5,-142.1479 375.5,-142.1479 375.5,-142.1479 372.5,-142.1479 369.5,-139.1479 369.5,-136.1479 369.5,-136.1479 369.5,-130.1479 369.5,-130.1479 369.5,-127.1479 372.5,-124.1479 375.5,-124.1479 375.5,-124.1479 434.5,-124.1479 434.5,-124.1479 437.5,-124.1479 440.5,-127.1479 440.5,-130.1479 440.5,-130.1479 440.5,-136.1479 440.5,-136.1479 440.5,-139.1479 437.5,-142.1479 434.5,-142.1479"/>
<text text-anchor="middle" x="405" y="-130.9479" font-family="Helvetica,sans-Serif" font-size="9.00" fill="#000000">NotFound.tsx</text>
</a>
</g>
</g>
<!-- src/App.tsx&#45;&gt;src/components/NotFound.tsx -->
<g id="edge3" class="edge">
<title>src/App.tsx&#45;&gt;src/components/NotFound.tsx</title>
<path fill="none" stroke="#000000" stroke-width="2" stroke-opacity="0.200000" d="M305.2447,-137.8607C322.0081,-137.0687 343.841,-136.0373 362.806,-135.1413"/>
<polygon fill="#000000" fill-opacity="0.200000" stroke="#000000" stroke-width="2" stroke-opacity="0.200000" points="363.222,-137.2241 369.1161,-134.8432 363.0237,-133.0287 363.222,-137.2241"/>
</g>
<!-- src/components/TimelinePage.tsx -->
<g id="node9" class="node">
<title>src/components/TimelinePage.tsx</title>
<g id="a_node9"><a xlink:href="src/components/TimelinePage.tsx" xlink:title="TimelinePage.tsx">
<path fill="#bbfeff" stroke="#000000" d="M442.5,-232.1479C442.5,-232.1479 367.5,-232.1479 367.5,-232.1479 364.5,-232.1479 361.5,-229.1479 361.5,-226.1479 361.5,-226.1479 361.5,-220.1479 361.5,-220.1479 361.5,-217.1479 364.5,-214.1479 367.5,-214.1479 367.5,-214.1479 442.5,-214.1479 442.5,-214.1479 445.5,-214.1479 448.5,-217.1479 448.5,-220.1479 448.5,-220.1479 448.5,-226.1479 448.5,-226.1479 448.5,-229.1479 445.5,-232.1479 442.5,-232.1479"/>
<text text-anchor="middle" x="405" y="-220.9479" font-family="Helvetica,sans-Serif" font-size="9.00" fill="#000000">TimelinePage.tsx</text>
</a>
</g>
</g>
<!-- src/App.tsx&#45;&gt;src/components/TimelinePage.tsx -->
<g id="edge4" class="edge">
<title>src/App.tsx&#45;&gt;src/components/TimelinePage.tsx</title>
<path fill="none" stroke="#000000" stroke-width="2" stroke-opacity="0.200000" d="M281.0104,-148.5023C286.4113,-163.6745 299.2595,-193.4301 321,-208.1479 331.0286,-214.9369 343.2181,-218.9196 355.1658,-221.196"/>
<polygon fill="#000000" fill-opacity="0.200000" stroke="#000000" stroke-width="2" stroke-opacity="0.200000" points="355.1144,-223.3166 361.3789,-222.2367 355.8083,-219.1743 355.1144,-223.3166"/>
</g>
<!-- src/components/Todos.tsx -->
<g id="node10" class="node">
<title>src/components/Todos.tsx</title>
<g id="a_node10"><a xlink:href="src/components/Todos.tsx" xlink:title="Todos.tsx">
<path fill="#bbfeff" stroke="#000000" d="M427,-112.1479C427,-112.1479 383,-112.1479 383,-112.1479 380,-112.1479 377,-109.1479 377,-106.1479 377,-106.1479 377,-100.1479 377,-100.1479 377,-97.1479 380,-94.1479 383,-94.1479 383,-94.1479 427,-94.1479 427,-94.1479 430,-94.1479 433,-97.1479 433,-100.1479 433,-100.1479 433,-106.1479 433,-106.1479 433,-109.1479 430,-112.1479 427,-112.1479"/>
<text text-anchor="middle" x="405" y="-100.9479" font-family="Helvetica,sans-Serif" font-size="9.00" fill="#000000">Todos.tsx</text>
</a>
</g>
</g>
<!-- src/App.tsx&#45;&gt;src/components/Todos.tsx -->
<g id="edge5" class="edge">
<title>src/App.tsx&#45;&gt;src/components/Todos.tsx</title>
<path fill="none" stroke="#000000" stroke-width="2" stroke-opacity="0.200000" d="M293.89,-130.0718C301.8165,-125.8892 311.6805,-121.1898 321,-118.1479 337.0379,-112.9129 355.43,-109.3672 370.9078,-107.0436"/>
<polygon fill="#000000" fill-opacity="0.200000" stroke="#000000" stroke-width="2" stroke-opacity="0.200000" points="371.2649,-109.114 376.9052,-106.1818 370.6675,-104.9567 371.2649,-109.114"/>
</g>
<!-- src/images/motorcycle&#45;log&#45;small&#45;banner.png -->
<g id="node12" class="node">
<title>src/images/motorcycle&#45;log&#45;small&#45;banner.png</title>
<g id="a_node12"><a xlink:href="src/images/motorcycle-log-small-banner.png" xlink:title="motorcycle&#45;log&#45;small&#45;banner.png">
<path fill="#ffffcc" stroke="#000000" d="M475,-52.1479C475,-52.1479 335,-52.1479 335,-52.1479 332,-52.1479 329,-49.1479 329,-46.1479 329,-46.1479 329,-40.1479 329,-40.1479 329,-37.1479 332,-34.1479 335,-34.1479 335,-34.1479 475,-34.1479 475,-34.1479 478,-34.1479 481,-37.1479 481,-40.1479 481,-40.1479 481,-46.1479 481,-46.1479 481,-49.1479 478,-52.1479 475,-52.1479"/>
<text text-anchor="middle" x="405" y="-40.9479" font-family="Helvetica,sans-Serif" font-size="9.00" fill="#000000">motorcycle&#45;log&#45;small&#45;banner.png</text>
</a>
</g>
</g>
<!-- src/App.tsx&#45;&gt;src/images/motorcycle&#45;log&#45;small&#45;banner.png -->
<g id="edge6" class="edge">
<title>src/App.tsx&#45;&gt;src/images/motorcycle&#45;log&#45;small&#45;banner.png</title>
<path fill="none" stroke="#000000" stroke-width="2" stroke-opacity="0.200000" d="M288.1636,-129.8901C295.7204,-122.6164 305.9082,-111.9422 313,-101.1479 317.807,-93.8311 314.8912,-89.4188 321,-83.1479 333.7484,-70.061 351.6297,-60.7299 367.6194,-54.3905"/>
<polygon fill="#000000" fill-opacity="0.200000" stroke="#000000" stroke-width="2" stroke-opacity="0.200000" points="368.5493,-56.2837 373.4117,-52.1889 367.0571,-52.3577 368.5493,-56.2837"/>
</g>
<!-- src/api/todos&#45;api.ts -->
<g id="node2" class="node">
<title>src/api/todos&#45;api.ts</title>
<g id="a_node2"><a xlink:href="src/api/todos-api.ts" xlink:title="todos&#45;api.ts">
<path fill="#ddfeff" stroke="#000000" d="M563,-52.1479C563,-52.1479 511,-52.1479 511,-52.1479 508,-52.1479 505,-49.1479 505,-46.1479 505,-46.1479 505,-40.1479 505,-40.1479 505,-37.1479 508,-34.1479 511,-34.1479 511,-34.1479 563,-34.1479 563,-34.1479 566,-34.1479 569,-37.1479 569,-40.1479 569,-40.1479 569,-46.1479 569,-46.1479 569,-49.1479 566,-52.1479 563,-52.1479"/>
<text text-anchor="middle" x="537" y="-40.9479" font-family="Helvetica,sans-Serif" font-size="9.00" fill="#000000">todos&#45;api.ts</text>
</a>
</g>
</g>
<!-- src/config.ts -->
<g id="node11" class="node">
<title>src/config.ts</title>
<g id="a_node11"><a xlink:href="src/config.ts" xlink:title="config.ts">
<path fill="#ddfeff" stroke="#000000" d="M633,-43.1479C633,-43.1479 591,-43.1479 591,-43.1479 588,-43.1479 585,-40.1479 585,-37.1479 585,-37.1479 585,-31.1479 585,-31.1479 585,-28.1479 588,-25.1479 591,-25.1479 591,-25.1479 633,-25.1479 633,-25.1479 636,-25.1479 639,-28.1479 639,-31.1479 639,-31.1479 639,-37.1479 639,-37.1479 639,-40.1479 636,-43.1479 633,-43.1479"/>
<text text-anchor="middle" x="612" y="-31.9479" font-family="Helvetica,sans-Serif" font-size="9.00" fill="#000000">config.ts</text>
</a>
</g>
</g>
<!-- src/api/todos&#45;api.ts&#45;&gt;src/config.ts -->
<g id="edge7" class="edge">
<title>src/api/todos&#45;api.ts&#45;&gt;src/config.ts</title>
<path fill="none" stroke="#000000" stroke-width="2" stroke-opacity="0.200000" d="M569.242,-39.2788C572.3537,-38.9054 575.5146,-38.5261 578.6368,-38.1514"/>
<polygon fill="#000000" fill-opacity="0.200000" stroke="#000000" stroke-width="2" stroke-opacity="0.200000" points="579.256,-40.1923 584.963,-37.3923 578.7555,-36.0222 579.256,-40.1923"/>
</g>
<!-- src/auth/Auth.js -->
<g id="node3" class="node">
<title>src/auth/Auth.js</title>
<g id="a_node3"><a xlink:href="src/auth/Auth.js" xlink:title="Auth.js">
<path fill="#ffffcc" stroke="#000000" d="M299,-72.1479C299,-72.1479 257,-72.1479 257,-72.1479 254,-72.1479 251,-69.1479 251,-66.1479 251,-66.1479 251,-60.1479 251,-60.1479 251,-57.1479 254,-54.1479 257,-54.1479 257,-54.1479 299,-54.1479 299,-54.1479 302,-54.1479 305,-57.1479 305,-60.1479 305,-60.1479 305,-66.1479 305,-66.1479 305,-69.1479 302,-72.1479 299,-72.1479"/>
<text text-anchor="middle" x="278" y="-60.9479" font-family="Helvetica,sans-Serif" font-size="9.00" fill="#000000">Auth.js</text>
</a>
</g>
</g>
<!-- src/auth/Auth.js&#45;&gt;src/config.ts -->
<g id="edge8" class="edge">
<title>src/auth/Auth.js&#45;&gt;src/config.ts</title>
<path fill="none" stroke="#000000" stroke-width="2" stroke-opacity="0.200000" d="M284.3667,-54.0889C291.8447,-44.3215 305.2488,-29.3413 321,-23.1479 426.8863,18.4871 464.5385,-5.8914 577,-23.1479 578.0388,-23.3073 579.0891,-23.4918 580.1451,-23.6976"/>
<polygon fill="#000000" fill-opacity="0.200000" stroke="#000000" stroke-width="2" stroke-opacity="0.200000" points="579.8982,-25.7951 586.2149,-25.0813 580.8317,-21.7002 579.8982,-25.7951"/>
</g>
<!-- src/components/Callback.tsx -->
<g id="node4" class="node">
<title>src/components/Callback.tsx</title>
<g id="a_node4"><a xlink:href="src/components/Callback.tsx" xlink:title="Callback.tsx">
<path fill="#bbfeff" stroke="#000000" d="M432,-262.1479C432,-262.1479 378,-262.1479 378,-262.1479 375,-262.1479 372,-259.1479 372,-256.1479 372,-256.1479 372,-250.1479 372,-250.1479 372,-247.1479 375,-244.1479 378,-244.1479 378,-244.1479 432,-244.1479 432,-244.1479 435,-244.1479 438,-247.1479 438,-250.1479 438,-250.1479 438,-256.1479 438,-256.1479 438,-259.1479 435,-262.1479 432,-262.1479"/>
<text text-anchor="middle" x="405" y="-250.9479" font-family="Helvetica,sans-Serif" font-size="9.00" fill="#000000">Callback.tsx</text>
</a>
</g>
</g>
<!-- src/components/EditTodo.tsx&#45;&gt;src/api/todos&#45;api.ts -->
<g id="edge9" class="edge">
<title>src/components/EditTodo.tsx&#45;&gt;src/api/todos&#45;api.ts</title>
<path fill="none" stroke="#000000" stroke-width="2" stroke-opacity="0.200000" d="M438.6778,-196.1359C456.2074,-195.7314 476.5269,-191.8343 489,-178.1479 503.2705,-162.4892 488.0777,-102.3633 497,-83.1479 501.8637,-72.6732 510.6992,-63.3815 518.8314,-56.3961"/>
<polygon fill="#000000" fill-opacity="0.200000" stroke="#000000" stroke-width="2" stroke-opacity="0.200000" points="520.4528,-57.7825 523.7622,-52.3549 517.7904,-54.5341 520.4528,-57.7825"/>
</g>
<!-- src/components/Image.jsx -->
<g id="node6" class="node">
<title>src/components/Image.jsx</title>
<g id="a_node6"><a xlink:href="src/components/Image.jsx" xlink:title="Image.jsx">
<path fill="#ffff77" stroke="#000000" d="M559,-232.1479C559,-232.1479 515,-232.1479 515,-232.1479 512,-232.1479 509,-229.1479 509,-226.1479 509,-226.1479 509,-220.1479 509,-220.1479 509,-217.1479 512,-214.1479 515,-214.1479 515,-214.1479 559,-214.1479 559,-214.1479 562,-214.1479 565,-217.1479 565,-220.1479 565,-220.1479 565,-226.1479 565,-226.1479 565,-229.1479 562,-232.1479 559,-232.1479"/>
<text text-anchor="middle" x="537" y="-220.9479" font-family="Helvetica,sans-Serif" font-size="9.00" fill="#000000">Image.jsx</text>
</a>
</g>
</g>
<!-- src/components/TimelinePage.tsx&#45;&gt;src/api/todos&#45;api.ts -->
<g id="edge10" class="edge">
<title>src/components/TimelinePage.tsx&#45;&gt;src/api/todos&#45;api.ts</title>
<path fill="none" stroke="#000000" stroke-width="2" stroke-opacity="0.200000" d="M448.6936,-225.6291C463.5549,-224.0882 478.9347,-219.4177 489,-208.1479 507.5413,-187.3877 485.5319,-108.5102 497,-83.1479 501.7582,-72.6248 510.5851,-63.3292 518.7389,-56.3537"/>
<polygon fill="#000000" fill-opacity="0.200000" stroke="#000000" stroke-width="2" stroke-opacity="0.200000" points="520.363,-57.7391 523.6864,-52.3201 517.709,-54.4839 520.363,-57.7391"/>
</g>
<!-- src/components/TimelinePage.tsx&#45;&gt;src/components/Image.jsx -->
<g id="edge11" class="edge">
<title>src/components/TimelinePage.tsx&#45;&gt;src/components/Image.jsx</title>
<path fill="none" stroke="#000000" stroke-width="2" stroke-opacity="0.200000" d="M448.5876,-223.1479C466.0894,-223.1479 485.9773,-223.1479 502.4524,-223.1479"/>
<polygon fill="#000000" fill-opacity="0.200000" stroke="#000000" stroke-width="2" stroke-opacity="0.200000" points="502.8193,-225.2479 508.8193,-223.1479 502.8193,-221.0479 502.8193,-225.2479"/>
</g>
<!-- src/components/Todos.tsx&#45;&gt;src/api/todos&#45;api.ts -->
<g id="edge12" class="edge">
<title>src/components/Todos.tsx&#45;&gt;src/api/todos&#45;api.ts</title>
<path fill="none" stroke="#000000" stroke-width="2" stroke-opacity="0.200000" d="M433.272,-98.7655C450.0772,-95.4355 471.4646,-89.8991 489,-81.1479 501.6782,-74.8207 514.1687,-64.7784 523.229,-56.606"/>
<polygon fill="#000000" fill-opacity="0.200000" stroke="#000000" stroke-width="2" stroke-opacity="0.200000" points="524.9115,-57.9102 527.889,-52.2937 522.0589,-54.8276 524.9115,-57.9102"/>
</g>
<!-- src/index.css -->
<g id="node13" class="node">
<title>src/index.css</title>
<g id="a_node13"><a xlink:href="src/index.css" xlink:title="index.css">
<path fill="#ffffcc" stroke="#000000" d="M214.5,-118.1479C214.5,-118.1479 171.5,-118.1479 171.5,-118.1479 168.5,-118.1479 165.5,-115.1479 165.5,-112.1479 165.5,-112.1479 165.5,-106.1479 165.5,-106.1479 165.5,-103.1479 168.5,-100.1479 171.5,-100.1479 171.5,-100.1479 214.5,-100.1479 214.5,-100.1479 217.5,-100.1479 220.5,-103.1479 220.5,-106.1479 220.5,-106.1479 220.5,-112.1479 220.5,-112.1479 220.5,-115.1479 217.5,-118.1479 214.5,-118.1479"/>
<text text-anchor="middle" x="193" y="-106.9479" font-family="Helvetica,sans-Serif" font-size="9.00" fill="#000000">index.css</text>
</a>
</g>
</g>
<!-- src/index.tsx -->
<g id="node14" class="node">
<title>src/index.tsx</title>
<g id="a_node14"><a xlink:href="src/index.tsx" xlink:title="index.tsx">
<path fill="#bbfeff" stroke="#000000" d="M100.5,-148.1479C100.5,-148.1479 58.5,-148.1479 58.5,-148.1479 55.5,-148.1479 52.5,-145.1479 52.5,-142.1479 52.5,-142.1479 52.5,-136.1479 52.5,-136.1479 52.5,-133.1479 55.5,-130.1479 58.5,-130.1479 58.5,-130.1479 100.5,-130.1479 100.5,-130.1479 103.5,-130.1479 106.5,-133.1479 106.5,-136.1479 106.5,-136.1479 106.5,-142.1479 106.5,-142.1479 106.5,-145.1479 103.5,-148.1479 100.5,-148.1479"/>
<text text-anchor="middle" x="79.5" y="-136.9479" font-family="Helvetica,sans-Serif" font-size="9.00" fill="#000000">index.tsx</text>
</a>
</g>
</g>
<!-- src/index.tsx&#45;&gt;src/index.css -->
<g id="edge13" class="edge">
<title>src/index.tsx&#45;&gt;src/index.css</title>
<path fill="none" stroke="#000000" stroke-width="2" stroke-opacity="0.200000" d="M106.6861,-131.9621C122.4565,-127.7937 142.4529,-122.5083 159.2269,-118.0747"/>
<polygon fill="#000000" fill-opacity="0.200000" stroke="#000000" stroke-width="2" stroke-opacity="0.200000" points="159.9831,-120.047 165.2473,-116.4834 158.9098,-115.9864 159.9831,-120.047"/>
</g>
<!-- src/routing.tsx -->
<g id="node16" class="node">
<title>src/routing.tsx</title>
<g id="a_node16"><a xlink:href="src/routing.tsx" xlink:title="routing.tsx">
<path fill="#bbfeff" stroke="#000000" d="M216.5,-148.1479C216.5,-148.1479 169.5,-148.1479 169.5,-148.1479 166.5,-148.1479 163.5,-145.1479 163.5,-142.1479 163.5,-142.1479 163.5,-136.1479 163.5,-136.1479 163.5,-133.1479 166.5,-130.1479 169.5,-130.1479 169.5,-130.1479 216.5,-130.1479 216.5,-130.1479 219.5,-130.1479 222.5,-133.1479 222.5,-136.1479 222.5,-136.1479 222.5,-142.1479 222.5,-142.1479 222.5,-145.1479 219.5,-148.1479 216.5,-148.1479"/>
<text text-anchor="middle" x="193" y="-136.9479" font-family="Helvetica,sans-Serif" font-size="9.00" fill="#000000">routing.tsx</text>
</a>
</g>
</g>
<!-- src/index.tsx&#45;&gt;src/routing.tsx -->
<g id="edge14" class="edge">
<title>src/index.tsx&#45;&gt;src/routing.tsx</title>
<path fill="none" stroke="#000000" stroke-width="2" stroke-opacity="0.200000" d="M106.6861,-139.1479C121.7392,-139.1479 140.6426,-139.1479 156.9188,-139.1479"/>
<polygon fill="#000000" fill-opacity="0.200000" stroke="#000000" stroke-width="2" stroke-opacity="0.200000" points="157.2464,-141.2479 163.2464,-139.1479 157.2464,-137.0479 157.2464,-141.2479"/>
</g>
<!-- src/serviceWorker.ts -->
<g id="node17" class="node">
<title>src/serviceWorker.ts</title>
<g id="a_node17"><a xlink:href="src/serviceWorker.ts" xlink:title="serviceWorker.ts">
<path fill="#ddfeff" stroke="#000000" d="M229,-178.1479C229,-178.1479 157,-178.1479 157,-178.1479 154,-178.1479 151,-175.1479 151,-172.1479 151,-172.1479 151,-166.1479 151,-166.1479 151,-163.1479 154,-160.1479 157,-160.1479 157,-160.1479 229,-160.1479 229,-160.1479 232,-160.1479 235,-163.1479 235,-166.1479 235,-166.1479 235,-172.1479 235,-172.1479 235,-175.1479 232,-178.1479 229,-178.1479"/>
<text text-anchor="middle" x="193" y="-166.9479" font-family="Helvetica,sans-Serif" font-size="9.00" fill="#000000">serviceWorker.ts</text>
</a>
</g>
</g>
<!-- src/index.tsx&#45;&gt;src/serviceWorker.ts -->
<g id="edge15" class="edge">
<title>src/index.tsx&#45;&gt;src/serviceWorker.ts</title>
<path fill="none" stroke="#000000" stroke-width="2" stroke-opacity="0.200000" d="M106.6861,-146.3336C120.4655,-149.9757 137.4711,-154.4706 152.7346,-158.505"/>
<polygon fill="#000000" fill-opacity="0.200000" stroke="#000000" stroke-width="2" stroke-opacity="0.200000" points="152.3718,-160.5812 158.7093,-160.0842 153.4452,-156.5206 152.3718,-160.5812"/>
</g>
<!-- src/react&#45;app&#45;env.d.ts -->
<g id="node15" class="node">
<title>src/react&#45;app&#45;env.d.ts</title>
<g id="a_node15"><a xlink:href="src/react-app-env.d.ts" xlink:title="react&#45;app&#45;env.d.ts">
<path fill="#ccffcc" stroke="#000000" d="M118.5,-79.1479C118.5,-79.1479 40.5,-79.1479 40.5,-79.1479 37.5,-79.1479 34.5,-76.1479 34.5,-73.1479 34.5,-73.1479 34.5,-67.1479 34.5,-67.1479 34.5,-64.1479 37.5,-61.1479 40.5,-61.1479 40.5,-61.1479 118.5,-61.1479 118.5,-61.1479 121.5,-61.1479 124.5,-64.1479 124.5,-67.1479 124.5,-67.1479 124.5,-73.1479 124.5,-73.1479 124.5,-76.1479 121.5,-79.1479 118.5,-79.1479"/>
<text text-anchor="middle" x="79.5" y="-67.9479" font-family="Helvetica,sans-Serif" font-size="9.00" fill="#000000">react&#45;app&#45;env.d.ts</text>
</a>
</g>
</g>
<!-- src/routing.tsx&#45;&gt;src/App.tsx -->
<g id="edge16" class="edge">
<title>src/routing.tsx&#45;&gt;src/App.tsx</title>
<path fill="none" stroke="#000000" stroke-width="2" stroke-opacity="0.200000" d="M222.7289,-139.1479C229.91,-139.1479 237.6274,-139.1479 244.9505,-139.1479"/>
<polygon fill="#000000" fill-opacity="0.200000" stroke="#000000" stroke-width="2" stroke-opacity="0.200000" points="244.9887,-141.248 250.9887,-139.1479 244.9886,-137.048 244.9887,-141.248"/>
</g>
<!-- src/routing.tsx&#45;&gt;src/auth/Auth.js -->
<g id="edge17" class="edge">
<title>src/routing.tsx&#45;&gt;src/auth/Auth.js</title>
<path fill="none" stroke="#000000" stroke-width="2" stroke-opacity="0.200000" d="M222.6472,-133.1029C227.3422,-130.9638 231.7218,-128.068 235,-124.1479 248.8742,-107.5569 229.2307,-92.8259 243,-76.1479 243.8047,-75.1731 244.6899,-74.2715 245.6387,-73.4374"/>
<polygon fill="#000000" fill-opacity="0.200000" stroke="#000000" stroke-width="2" stroke-opacity="0.200000" points="247.1199,-74.9642 250.8337,-69.805 244.7131,-71.5222 247.1199,-74.9642"/>
</g>
<!-- src/routing.tsx&#45;&gt;src/components/Callback.tsx -->
<g id="edge18" class="edge">
<title>src/routing.tsx&#45;&gt;src/components/Callback.tsx</title>
<path fill="none" stroke="#000000" stroke-width="2" stroke-opacity="0.200000" d="M222.6738,-147.9173C226.9523,-149.6977 231.1912,-151.7688 235,-154.1479 280.3158,-182.4532 273.4897,-213.7043 321,-238.1479 334.601,-245.1454 350.8949,-248.9384 365.4971,-250.9736"/>
<polygon fill="#000000" fill-opacity="0.200000" stroke="#000000" stroke-width="2" stroke-opacity="0.200000" points="365.4244,-253.0808 371.6388,-251.7424 365.9461,-248.9133 365.4244,-253.0808"/>
</g>
<!-- src/types/CreateTodoRequest.ts -->
<g id="node18" class="node">
<title>src/types/CreateTodoRequest.ts</title>
<g id="a_node18"><a xlink:href="src/types/CreateTodoRequest.ts" xlink:title="CreateTodoRequest.ts">
<path fill="#ccffcc" stroke="#000000" d="M128,-255.1479C128,-255.1479 31,-255.1479 31,-255.1479 28,-255.1479 25,-252.1479 25,-249.1479 25,-249.1479 25,-243.1479 25,-243.1479 25,-240.1479 28,-237.1479 31,-237.1479 31,-237.1479 128,-237.1479 128,-237.1479 131,-237.1479 134,-240.1479 134,-243.1479 134,-243.1479 134,-249.1479 134,-249.1479 134,-252.1479 131,-255.1479 128,-255.1479"/>
<text text-anchor="middle" x="79.5" y="-243.9479" font-family="Helvetica,sans-Serif" font-size="9.00" fill="#000000">CreateTodoRequest.ts</text>
</a>
</g>
</g>
<!-- src/types/Todo.ts -->
<g id="node19" class="node">
<title>src/types/Todo.ts</title>
<g id="a_node19"><a xlink:href="src/types/Todo.ts" xlink:title="Todo.ts">
<path fill="#ccffcc" stroke="#000000" d="M100.5,-225.1479C100.5,-225.1479 58.5,-225.1479 58.5,-225.1479 55.5,-225.1479 52.5,-222.1479 52.5,-219.1479 52.5,-219.1479 52.5,-213.1479 52.5,-213.1479 52.5,-210.1479 55.5,-207.1479 58.5,-207.1479 58.5,-207.1479 100.5,-207.1479 100.5,-207.1479 103.5,-207.1479 106.5,-210.1479 106.5,-213.1479 106.5,-213.1479 106.5,-219.1479 106.5,-219.1479 106.5,-222.1479 103.5,-225.1479 100.5,-225.1479"/>
<text text-anchor="middle" x="79.5" y="-213.9479" font-family="Helvetica,sans-Serif" font-size="9.00" fill="#000000">Todo.ts</text>
</a>
</g>
</g>
<!-- src/types/UpdateTodoRequest.ts -->
<g id="node20" class="node">
<title>src/types/UpdateTodoRequest.ts</title>
<g id="a_node20"><a xlink:href="src/types/UpdateTodoRequest.ts" xlink:title="UpdateTodoRequest.ts">
<path fill="#ccffcc" stroke="#000000" d="M129,-195.1479C129,-195.1479 30,-195.1479 30,-195.1479 27,-195.1479 24,-192.1479 24,-189.1479 24,-189.1479 24,-183.1479 24,-183.1479 24,-180.1479 27,-177.1479 30,-177.1479 30,-177.1479 129,-177.1479 129,-177.1479 132,-177.1479 135,-180.1479 135,-183.1479 135,-183.1479 135,-189.1479 135,-189.1479 135,-192.1479 132,-195.1479 129,-195.1479"/>
<text text-anchor="middle" x="79.5" y="-183.9479" font-family="Helvetica,sans-Serif" font-size="9.00" fill="#000000">UpdateTodoRequest.ts</text>
</a>
</g>
</g>
</g>
</svg>
